<?xml version="1.0" encoding="UTF-8"?>
<svg width="752pt" height="752pt" version="1.1" viewBox="0 0 752 752" xmlns="http://www.w3.org/2000/svg">
 <path d="m376 541.75c91.395 0 165.75-74.355 165.75-165.75 0-91.395-74.355-165.75-165.75-165.75-91.395 0-165.75 74.355-165.75 165.75 0 91.398 74.355 165.75 165.75 165.75zm0-18.941c-42.68 0-81.152-18.316-108-47.492 6.4141-53.926 49.363-80.375 108-80.375 58.641 0 101.59 26.449 108 80.375-26.848 29.172-65.32 47.492-108 47.492zm0-240.28c25.809 0 46.734 20.922 46.734 46.734s-20.922 46.734-46.734 46.734c-25.809 0-46.734-20.922-46.734-46.734 0.003906-25.809 20.926-46.734 46.734-46.734z" fill="#fff"/>
</svg>
