<?xml version="1.0" encoding="UTF-8"?>
<svg width="752pt" height="752pt" version="1.1" viewBox="0 0 752 752" xmlns="http://www.w3.org/2000/svg">
 <g fill="#fff">
  <path d="m376 271.81c-28.383 0-51.469 23.086-51.469 51.469s23.09 51.469 51.469 51.469c28.383 0 51.469-23.086 51.469-51.469 0-28.379-23.086-51.469-51.469-51.469z"/>
  <path d="m376 207.88c-92.703 0-168.12 75.418-168.12 168.12 0 48.496 20.941 94.613 57.453 126.57l2.5625 2.5508h0.42969c30.172 25.176 68.262 39 107.68 39 40.617 0 79.832-14.68 110.41-41.34 36.684-31.953 57.715-78.16 57.715-126.78 0-92.703-75.418-168.12-168.12-168.12zm107.86 271.11c-7.3672-54.098-52.914-95.887-107.86-95.887-54.367 0-100.47 41.844-108.57 95.137-25.941-27.559-40.602-64.055-40.602-102.24 0-82.258 66.922-149.18 149.18-149.18 82.254 0.003907 149.18 66.926 149.18 149.18 0 38.543-14.934 75.352-41.32 102.99z"/>
 </g>
</svg>
