<?xml version="1.0" encoding="UTF-8"?>
<svg width="752pt" height="752pt" version="1.1" viewBox="0 0 752 752" xmlns="http://www.w3.org/2000/svg">
 <path d="m272.71 366.25-36.074 28.906c-24.148 19.316-38.23 48.586-38.23 79.508v47.637c32.312 34.859 103.32 51.027 177.59 51.027s145.28-16.168 177.59-51.027v-47.637c0-30.926-14.086-60.191-38.23-79.508l-36.074-28.906-24.664 30.832 36.113 28.867c14.809 11.848 23.395 29.75 23.395 48.715v28.711c-15.32 13.734-65.473 30.484-138.13 30.484s-122.81-16.75-138.13-30.484v-28.711c0-18.965 8.5859-36.867 23.395-48.715l36.113-28.867zm103.29-187.57c-54.258 0-98.664 44.406-98.664 98.664 0 54.258 44.406 98.664 98.664 98.664 54.258 0 98.664-44.406 98.664-98.664 0-54.258-44.406-98.664-98.664-98.664zm0 39.465c32.926 0 59.199 26.27 59.199 59.199 0 32.926-26.27 59.199-59.199 59.199-32.926 0-59.199-26.27-59.199-59.199 0-32.926 26.27-59.199 59.199-59.199z" fill="#fff"/>
</svg>
