<?xml version="1.0" encoding="UTF-8"?>
<svg width="752pt" height="752pt" version="1.1" viewBox="0 0 752 752" xmlns="http://www.w3.org/2000/svg">
 <g fill="#fff">
  <path d="m213.4 262.59h230.12c6.4102 0 11.605-5.1992 11.605-11.609v-44.977c0-6.4102-5.1953-11.609-11.605-11.609h-230.12c-6.4102 0-11.609 5.1992-11.609 11.609v44.977c0 6.4102 5.1992 11.609 11.609 11.609z"/>
  <path d="m202.08 295.95c0 3.8477 3.1172 6.9648 6.9648 6.9648h246.08c3.8477 0 6.9648-3.1172 6.9648-6.9648s-3.1172-6.9648-6.9648-6.9648l-246.08 0.003907c-3.8438 0-6.9609 3.1172-6.9609 6.9609z"/>
  <path d="m408.91 340.06c3.8477 0 6.9648-3.1133 6.9648-6.9648 0-3.8438-3.1172-6.9648-6.9648-6.9648l-199.87 0.003906c-3.8477 0-6.9648 3.1211-6.9648 6.9648 0 3.8477 3.1172 6.9648 6.9648 6.9648z"/>
  <path d="m455.12 474.71h-121.56c-3.8477 0-6.9648 3.1133-6.9648 6.9648 0 3.8438 3.1172 6.9648 6.9648 6.9648h121.56c3.8477 0 6.9648-3.1211 6.9648-6.9648-0.003906-3.8516-3.1211-6.9648-6.9688-6.9648z"/>
  <path d="m455.12 511.85h-121.56c-3.8477 0-6.9648 3.1172-6.9648 6.9648s3.1172 6.9648 6.9648 6.9648h121.56c3.8477 0 6.9648-3.1172 6.9648-6.9648-0.003906-3.8477-3.1211-6.9648-6.9688-6.9648z"/>
  <path d="m455.12 548.99h-121.56c-3.8477 0-6.9648 3.1211-6.9648 6.9648 0 3.8477 3.1172 6.9648 6.9648 6.9648h121.56c3.8477 0 6.9648-3.1133 6.9648-6.9648-0.003906-3.8438-3.1211-6.9648-6.9688-6.9648z"/>
  <path d="m284.03 474.72h-58.57c-11.145 0-20.195 9.0547-20.195 20.129v47.914c0 11.145 9.0547 20.129 20.195 20.129h58.57c11.145 0 20.195-8.9844 20.195-20.129v-47.914c0.003906-11.074-9.0508-20.129-20.195-20.129z"/>
  <path d="m212.24 377.21h193.64c3.8477 0 6.9648-3.1211 6.9648-6.9648 0-3.8477-3.1172-6.9648-6.9648-6.9648l-193.64 0.003906c-3.8477 0-6.9648 3.1133-6.9648 6.9648 0 3.8398 3.1172 6.9609 6.9648 6.9609z"/>
  <path d="m212.24 414.35h193.64c3.8477 0 6.9648-3.1172 6.9648-6.9648 0-3.8477-3.1172-6.9648-6.9648-6.9648h-193.64c-3.8477 0-6.9648 3.1172-6.9648 6.9648 0 3.8438 3.1172 6.9648 6.9648 6.9648z"/>
  <path d="m205.27 444.53c0 3.8477 3.1172 6.9648 6.9648 6.9648h240.07c3.8477 0 6.9648-3.1133 6.9648-6.9648 0-3.8438-3.1172-6.9648-6.9648-6.9648h-240.07c-3.8477 0-6.9648 3.1211-6.9648 6.9648z"/>
  <path d="m531.89 189.39-29.043 50.074v-38.93c0-26.188-21.312-47.5-47.496-47.5h-251.28c-26.188 0-47.426 21.312-47.426 47.5v351.01c0 26.117 21.242 47.43 47.426 47.43l251.28-0.003906c26.188 0 47.496-21.312 47.496-47.43v-177.45c8.9219-15.375-32.324 55.695 87.262-150.36 11.227-19.051 2.957-36.977-11.086-45.75-14.617-9.1367-35.496-8.3555-47.133 11.414zm2.7148 22.84 11.145 6.6172c-126.36 218.04-1.8555 3.1992-77.93 134.48l-11.074-6.6172c12.938-22.348 2.4922-4.3164 77.859-134.48zm-83.781 147.23 31.898 18.875c-1.0195 0.73437 1.5586-0.76172-31.758 17.34-0.21484-36.375-0.4375-33.574-0.14062-36.215zm40.113 7.5234c-0.82031-0.48828-11.844-7.0352-11.145-6.6172 93.668-161.64-50.73 87.555 77.93-134.48l11.215 6.6172c-7.9727 13.754 28.895-49.812-78 134.48zm-2.0195 184.55c0 18.453-15.113 33.5-33.57 33.5h-251.27c-18.453 0-33.5-15.043-33.5-33.5v-351c0-18.527 15.043-33.57 33.5-33.57h251.28c18.457 0 33.57 15.043 33.57 33.57v62.957l-47.43 81.762c-2.0625 4.1289-4.8438 7.8828-4.7344 16.367l0.34766 45.828c0 5.1797 5.6289 8.543 10.309 6.0586 42.727-23.25 40.793-22.113 41.508-22.707z"/>
 </g>
</svg>
