<?xml version="1.0" encoding="UTF-8"?>
<svg width="752pt" height="752pt" version="1.1" viewBox="0 0 752 752" xmlns="http://www.w3.org/2000/svg">
 <defs>
  <clipPath id="a">
   <path d="m139.21 191h473.58v370h-473.58z"/>
  </clipPath>
 </defs>
 <g clip-path="url(#a)">
  <path d="m572.77 333.38h-393.54c-22.102 0-40.023 18.105-40.023 40.438 0 22.336 17.922 44.809 40.023 44.809h393.54c22.102 0 40.023-22.477 40.023-44.805 0-22.332-17.922-40.441-40.023-40.441zm-393.54-56.828h393.54c22.102 0 40.023-22.477 40.023-44.805 0-22.332-17.922-40.441-40.023-40.441h-393.54c-22.102 0-40.023 18.105-40.023 40.438 0 22.336 17.922 44.809 40.023 44.809zm393.54 198.9h-393.54c-22.102 0-40.023 18.105-40.023 40.438 0 22.336 17.922 44.809 40.023 44.809h393.54c22.102 0 40.023-22.477 40.023-44.805 0-22.332-17.922-40.441-40.023-40.441z" fill="#fff"/>
 </g>
</svg>
