<?xml version="1.0" encoding="UTF-8"?>
<svg width="752pt" height="752pt" version="1.1" viewBox="0 0 752 752" xmlns="http://www.w3.org/2000/svg">
 <path d="m586.58 361.09-185.18-189.43c-6.7344-6.8945-15.754-10.691-25.398-10.691s-18.66 3.7969-25.398 10.691l-185.18 189.43c-6.0078 6.1484-7.7383 15.242-4.4023 23.164 3.3359 7.9258 11.043 13.047 19.641 13.047h36.949v158.22c0 19.586 15.934 35.52 35.52 35.52h46.117c19.586 0 35.52-15.934 35.52-35.52v-106.89c0-1.3047 1.0625-2.3672 2.3672-2.3672h77.742c1.3047 0 2.3672 1.0625 2.3672 2.3672l0.003907 106.89c0 19.586 15.934 35.52 35.52 35.52h46.117c19.586 0 35.52-15.934 35.52-35.52v-158.22h36.949c8.5977 0 16.309-5.1211 19.641-13.047 3.332-7.9219 1.6016-17.012-4.4062-23.16zm-64.023 12.531c-6.5391 0-11.84 5.3008-11.84 11.84v170.06c0 6.5312-5.3086 11.84-11.84 11.84h-46.117c-6.5312 0-11.84-5.3086-11.84-11.84v-106.89c0-14.359-11.688-26.047-26.047-26.047h-77.746c-14.359 0-26.047 11.688-26.047 26.047v106.89c0 6.5312-5.3086 11.84-11.84 11.84h-46.117c-6.5312 0-11.84-5.3086-11.84-11.84v-170.06c0-6.5391-5.3008-11.84-11.84-11.84h-43.16l181.25-185.41c4.4844-4.5977 12.441-4.5977 16.926 0l181.25 185.41z" fill="#fff"/>
</svg>
