<?xml version="1.0" encoding="UTF-8"?>
<svg width="752pt" height="752pt" version="1.1" viewBox="0 0 752 752" xmlns="http://www.w3.org/2000/svg">
 <path d="m534.8 372.19-4.1406 4.5469c-5.9102 6.5039-13.707 9.1172-17.418 5.8594-3.7266-3.2734-6.7305-5.9102-6.7305-5.9102v141.11c0 4.2148-1.6758 8.2578-4.6562 11.238-2.9844 2.9805-7.0273 4.6562-11.242 4.6523h-60.352c-4.1211-0.015625-8.0508-1.7305-10.875-4.7344-2.8203-3.0039-4.2852-7.0352-4.0469-11.148v-100.14h-72.633v100.14c0 4.2148-1.6719 8.2578-4.6523 11.234-2.9805 2.9805-7.0195 4.6562-11.234 4.6523h-56.945c-4.2148 0.003906-8.2578-1.6719-11.238-4.6484-2.9805-2.9805-4.6523-7.0234-4.6523-11.238v-143.13l-10.918 9.7773h-0.003906c-3.1758 2.5781-7.2188 3.8398-11.297 3.5273-4.0781-0.31641-7.8828-2.1797-10.625-5.2148l-3.6641-3.8125c-2.9141-3.0039-4.4883-7.0625-4.3555-11.246 0.13672-4.1836 1.9609-8.1328 5.0625-10.945l146.09-133.91c3.2578-2.8711 7.4375-4.4766 11.781-4.5273 4.3438-0.050781 8.5586 1.4609 11.883 4.2578l145.59 127.39c3.168 2.7461 5.0898 6.6562 5.332 10.84 0.23828 4.1875-1.2227 8.293-4.0547 11.383z" fill="#fff"/>
</svg>
