<?xml version="1.0" encoding="UTF-8"?>
<svg width="752pt" height="752pt" version="1.1" viewBox="0 0 752 752" xmlns="http://www.w3.org/2000/svg">
 <path d="m585.56 321.14-197.32-157.86h-0.003906c-3.4844-2.7539-7.793-4.25-12.234-4.25-4.4375 0-8.75 1.4961-12.234 4.25l-197.32 157.86c-3.1875 2.5508-5.5078 6.0234-6.6406 9.9492-1.1289 3.9219-1.0156 8.0977 0.32812 11.953 1.3438 3.8516 3.8516 7.1914 7.1719 9.5586 3.3242 2.3672 7.2969 3.6484 11.375 3.6641h19.734v177.59c0 15.699 6.2344 30.754 17.336 41.859 11.102 11.102 26.16 17.336 41.859 17.336h236.79c15.699 0 30.754-6.2344 41.855-17.336 11.102-11.105 17.34-26.16 17.34-41.859v-177.59h19.734c4.0781-0.015625 8.0508-1.2969 11.375-3.6641 3.3203-2.3672 5.8281-5.707 7.1719-9.5586 1.3438-3.8555 1.457-8.0312 0.32422-11.953-1.1289-3.9258-3.4492-7.3984-6.6367-9.9492zm-249.03 232.45v-78.93c0-14.098 7.5234-27.129 19.734-34.176 12.211-7.0508 27.254-7.0508 39.465 0 12.211 7.0469 19.73 20.078 19.73 34.176v78.93zm177.59-217.06v197.33c0 5.2305-2.0781 10.25-5.7773 13.953-3.7031 3.6992-8.7227 5.7773-13.953 5.7773h-39.469v-78.93c0-28.199-15.043-54.258-39.465-68.355-24.418-14.098-54.508-14.098-78.93 0-24.418 14.098-39.465 40.156-39.465 68.355v78.93h-39.465c-5.2344 0-10.25-2.0781-13.953-5.7773-3.6992-3.7031-5.7773-8.7227-5.7773-13.953v-197.33c0-6.2109-2.9258-12.059-7.8945-15.785l146.02-116.82 146.02 116.82c-4.9688 3.7266-7.8945 9.5742-7.8945 15.785z" fill="#fff"/>
</svg>
