<?xml version="1.0" encoding="UTF-8"?>
<svg width="752pt" height="752pt" version="1.1" viewBox="0 0 752 752" xmlns="http://www.w3.org/2000/svg">
 <path d="m468.35 183.61c-0.62109 0.74219-1.1758 1.5312-1.6602 2.3672-10.832-1.6953-21.863 1.4336-30.195 8.5586-8.332 7.125-13.129 17.535-13.137 28.5-0.11719 1.6172-0.11719 3.2383 0 4.8555l-204.82 205.53c-15.355 15.301-25.684 34.918-29.598 56.238l-13.023 69.734-9.5898 9.4727c-2.2422 2.2227-3.5039 5.25-3.5039 8.4062s1.2617 6.1836 3.5039 8.4062c2.2227 2.2422 5.25 3.5 8.4062 3.5s6.1836-1.2578 8.4062-3.5l9.4727-9.5898 69.734-13.023c21.32-3.918 40.938-14.242 56.234-29.598l199.73-199.73c7.3281 7.3633 10.637 17.82 8.8789 28.059-3.5508 16.219-23.68 32.559-48.543 39.781-3.1367 0.44141-5.9766 2.1094-7.8828 4.6406-1.9102 2.5312-2.7383 5.7188-2.2969 8.8555 0.91406 6.5391 6.957 11.098 13.496 10.184 1.1016 0.15625 2.2148 0.15625 3.3164 0 25.691-7.457 58.25-26.992 65-57.184h-0.003906c3.3945-14.621 0.28516-29.996-8.5234-42.148 5.1289-1.7656 9.7891-4.6836 13.617-8.5273 8.3984-8.4219 12.305-20.324 10.535-32.082 0.83594-0.48438 1.6289-1.0391 2.3672-1.6602 15.086-18.328 20.016-42.98 13.145-65.699-6.875-22.723-24.641-40.508-47.352-47.406-22.711-6.8984-47.371-2-65.715 13.062zm-210.75 356.25-56.238 10.418 10.773-55.879c1.4531-7.6172 3.9609-14.988 7.4609-21.906l60.262 60.262v0.003906c-7.0469 3.4062-14.539 5.7969-22.258 7.1016zm281.19-239.28c-5.5078 5.3398-14.262 5.3398-19.77 0l-67.605-67.602c-2.625-2.6211-4.0977-6.1758-4.0977-9.8867 0-3.707 1.4727-7.2656 4.0977-9.8867 5.4453-5.3867 14.211-5.3867 19.656 0l67.719 68.078c5.2188 5.375 5.2188 13.926 0 19.297z" fill="#fff"/>
</svg>
