<?xml version="1.0" encoding="UTF-8"?>
<svg width="752pt" height="752pt" version="1.1" viewBox="0 0 752 752" xmlns="http://www.w3.org/2000/svg">
 <g fill="#fff">
  <path d="m494.87 309.7c0 21.188-17.176 38.359-38.359 38.359-21.188 0-38.363-17.172-38.363-38.359 0-21.184 17.176-38.359 38.363-38.359 21.184 0 38.359 17.176 38.359 38.359"/>
  <path d="m267.55 476.88c5.6836 5.6836 7.5781 13.734 5.6836 23.68-1.8945 8.9961-7.1055 17.996-14.68 25.102-18.941 18.941-64.406 31.73-66.301 32.203l-7.5781 1.8945 2.3672-7.5781c0.47266-1.8945 14.207-48.305 32.203-66.301 9.4727-9.4727 21.785-15.156 32.203-15.156 6.6289 0 12.312 2.3672 16.102 6.1562z"/>
  <path d="m449.88 412.94c66.301-58.25 82.402-109.4 85.719-179.01h-13.262c-60.145 0-110.34 12.312-171.91 71.512zm-184.22 12.312c0.47266-13.734 5.6836-26.52 14.68-36.938l-45.465-49.254 5.2109-4.7344c24.625-22.73 57.777-35.047 91.402-33.625h4.2617c1.8945-1.8945 3.7891-3.7891 6.1562-5.6836 64.879-62.512 117.45-75.301 181.38-75.301 6.6289 0 13.262 0 20.836 0.47266l6.6289 0.47266-0.47266 6.6289c-2.8398 75.301-18.941 132.13-90.453 195.12-2.3672 1.8945-4.2617 3.7891-6.6289 5.6836v3.7891c-0.94531 33.625-15.629 65.828-40.727 88.559l-5.2109 4.7344-45.465-49.254c-10.418 7.5781-22.73 11.367-35.52 11.367-16.574 0-32.676-7.1055-44.043-19.418-11.836-11.359-17.52-26.516-16.574-42.617zm141.6 80.98c18.941-19.418 29.836-44.988 31.258-71.984l-110.35-119.81h-2.8398c-26.52 0-51.621 8.9961-71.984 25.574l44.988 48.777-4.7344 4.7344c-8.9961 8.5234-14.68 19.891-15.156 32.203-0.47266 12.312 3.7891 24.152 12.312 33.625 8.9961 9.4727 21.312 15.156 34.098 15.156 11.84 0 22.73-4.2617 31.73-12.312l4.7344-4.7344z"/>
 </g>
</svg>
