<?xml version="1.0" encoding="UTF-8"?>
<svg width="752pt" height="752pt" version="1.1" viewBox="0 0 752 752" xmlns="http://www.w3.org/2000/svg">
 <g fill="#fff">
  <path d="m564.01 223.04c-4.2617 75.773-21.312 129.29-97.086 190.85 0 32.203-12.785 64.406-38.832 87.141l-43.098-48.305c-8.9961 8.5234-20.836 12.785-32.203 13.262-15.156 0.47266-29.836-5.2109-40.727-17.051-18.941-21.312-17.051-53.988 3.7891-72.93l-43.098-48.305c26.047-23.207 59.199-32.676 91.402-28.887 69.145-68.676 124.08-80.039 199.85-75.777zm-78.613 116.5c14.207-12.785 15.156-34.098 2.8398-48.305-7.1055-7.5781-16.574-11.84-26.992-11.367-8.0508 0.47266-15.629 3.3164-21.312 8.5234-14.207 12.785-15.156 34.098-2.8398 48.305 7.1055 7.5781 16.574 11.84 26.992 11.367 7.5781-0.47266 15.156-3.3125 21.312-8.5234z"/>
  <path d="m208.36 538.91 2.3672-7.5781c0.47266-1.8945 13.734-46.883 30.781-64.406 9.4727-9.4727 20.836-14.68 31.258-14.68 6.6289 0 11.84 1.8945 16.102 6.1562 10.891 10.891 7.1055 31.73-8.5234 47.359-18.469 18.469-62.512 30.309-64.406 31.258z"/>
 </g>
</svg>
