<?xml version="1.0" encoding="UTF-8"?>
<svg width="752pt" height="752pt" version="1.1" viewBox="0 0 752 752" xmlns="http://www.w3.org/2000/svg">
 <g fill="#fff">
  <path d="m597.18 183.99c-2.707-14.742-14.434-26.465-29.18-29.172-70.73-12.988-141.85 8.1484-190.23 56.531-0.12891 0.12891-0.25391 0.25781-0.375 0.39063l-70.055 76.781-11.18-4.4023c-35.078-13.82-74.965-5.5156-101.61 21.137l-32.68 32.676c-9.375 9.375-12.949 22.625-9.5547 35.441s13.051 22.562 25.84 26.066l38.004 10.43 6.1406 6.1406-25.719 46.387c-7.9141 14.277-5.3789 32.312 6.1641 43.863l42.984 42.988c7.0586 7.0469 16.527 10.734 26.09 10.734 6.0898 0 12.219-1.4922 17.773-4.5742l46.387-25.719 6.1406 6.1406 10.43 38.004c3.5039 12.789 13.254 22.445 26.07 25.84 3.1875 0.84766 6.4023 1.2578 9.5781 1.2578 9.5859 0 18.82-3.7695 25.855-10.812l32.68-32.68c26.652-26.652 34.953-66.539 21.141-101.61l-4.4062-11.18 76.777-70.051c0.13281-0.12109 0.26953-0.24609 0.39453-0.37109 48.383-48.375 69.516-119.49 56.535-190.23zm-378.72 201.95-34.039-9.3398c-6.5703-1.8008-8.6289-7.0977-9.2109-9.293-0.57813-2.1914-1.4102-7.8164 3.4102-12.637l32.68-32.68c19.988-19.984 49.891-26.211 76.188-15.848l2.7773 1.0938zm59.66 148.76c-5.0859 2.8164-11.523 1.9141-15.641-2.1953l-42.977-42.984c-4.1172-4.1172-5.0234-10.551-2.2031-15.641l22.426-40.449 31.051 31.051-11.211 11.211c-4.625 4.625-4.625 12.117 0 16.742 2.3125 2.3125 5.3398 3.4688 8.3711 3.4688 3.0273 0 6.0586-1.1562 8.3711-3.4688l11.211-11.211 31.051 31.051zm151.88 6-32.684 32.68c-4.8086 4.8203-10.438 3.9883-12.629 3.4102-2.1914-0.58203-7.4922-2.6406-9.293-9.2109l-9.3398-34.039 78.699-71.805 1.0938 2.7773c10.359 26.297 4.1367 56.199-15.848 76.188zm94.098-183.41-171 156.02-48.832-48.832 84.145-84.145c4.625-4.6211 4.625-12.121 0-16.742-4.625-4.625-12.117-4.625-16.742 0l-84.145 84.145-48.832-48.836 156.02-171c43.504-43.379 105.1-61.516 169.03-49.789 5.1328 0.94141 9.2188 5.0234 10.16 10.156 11.73 63.934-6.4219 125.52-49.797 169.03z"/>
  <path d="m467.61 231.44c-14.145 0-27.438 5.5078-37.441 15.508-20.645 20.645-20.645 54.234 0 74.879 10.004 10 23.301 15.508 37.441 15.508 14.145 0 27.438-5.5078 37.438-15.508 20.645-20.645 20.645-54.234 0-74.879-9.9961-10-23.293-15.508-37.438-15.508zm20.699 73.645c-5.5312 5.5273-12.879 8.5703-20.695 8.5703-7.8203 0-15.168-3.0469-20.699-8.5703-11.41-11.41-11.41-29.98 0-41.391 5.5312-5.5273 12.879-8.5742 20.699-8.5742 7.8164 0 15.164 3.043 20.695 8.5703 11.406 11.414 11.406 29.984 0 41.395z"/>
 </g>
</svg>
